<?xml version="1.0" encoding="iso-8859-1"?>
<!-- Generator: Adobe Illustrator 16.0.0, SVG Export Plug-In . SVG Version: 6.00 Build 0)  -->
<!DOCTYPE svg PUBLIC "-//W3C//DTD SVG 1.1//EN" "http://www.w3.org/Graphics/SVG/1.1/DTD/svg11.dtd">
<svg version="1.1" id="Capa_1" xmlns="http://www.w3.org/2000/svg" xmlns:xlink="http://www.w3.org/1999/xlink" x="0px" y="0px"
	 width="25.477px" height="25.477px" viewBox="0 0 25.477 25.477" style="enable-background:new 0 0 25.477 25.477;"
	 xml:space="preserve">
<g>
	<g>
		<path d="M7.399,8.527c-0.138,0-0.268,0.01-0.4,0.018l0.996,16.932h1.666L9.002,8.664C8.475,8.591,7.939,8.527,7.399,8.527z"/>
		<polygon points="16.33,25.477 17.996,25.477 18.996,8.477 16.996,8.477 		"/>
		<path d="M13.107,8.526c-0.04,0.018-0.083,0.038-0.13,0.059L12.95,8.598L12.34,8.82c-0.251,0.062-0.538,0.08-0.837,0.084
			l0.243,16.573h2.5l0.246-16.818c-0.174,0.014-0.355,0.033-0.508,0.033C13.726,8.691,13.387,8.67,13.107,8.526z"/>
		<path d="M20.716,6.415c-2.638-0.462-4.677,1.296-6.685,1.267c0.621-0.35,1.328-1.127,1.881-2.144
			c0.889-1.631,1.047-3.258,0.354-3.635c-0.606-0.331-1.666,0.41-2.517,1.695c-0.055-0.164-0.104-0.327-0.172-0.492
			c-0.923-2.196-2.729-3.531-4.035-2.982C8.238,0.672,7.928,2.896,8.851,5.093c0.47,1.117,1.168,2.006,1.912,2.543
			C8.186,6.583,5.812,3.729,2.59,7.758l0.438,2.375c3.188-3.969,7.344-0.909,9.594-1.935c0.227-0.103,0.387-0.17,0.467-0.221
			c0.041,0,0.074,0.004,0.116,0.002c0.604,0.716,4.229-0.659,6.67-0.031c1.207,0.31,0.857,2.559,0.652,3.747l1.875-1.281
			C23.684,8.134,22.18,6.671,20.716,6.415z M12.66,7.537c-0.098,0.041-0.201,0.063-0.306,0.072
			c-0.006,0.001-0.013,0.002-0.019,0.004c-0.783,0.052-1.725-0.749-2.238-1.969c-0.586-1.395-0.389-2.808,0.44-3.156
			c0.829-0.348,1.977,0.499,2.563,1.895c0.034,0.081,0.056,0.16,0.084,0.241c-0.544,1.173-0.697,2.272-0.418,2.847
			C12.729,7.491,12.7,7.52,12.66,7.537z M13.083,7.185c-0.175-0.375-0.068-1.092,0.294-1.85C13.509,6.092,13.4,6.768,13.083,7.185z
			 M13.627,7.434c0.473-0.706,0.597-1.824,0.341-3.046c0.483-0.596,1.017-0.908,1.343-0.729c0.439,0.239,0.34,1.273-0.225,2.309
			C14.652,6.764,14.072,7.325,13.627,7.434z"/>
	</g>
</g>
<g>
</g>
<g>
</g>
<g>
</g>
<g>
</g>
<g>
</g>
<g>
</g>
<g>
</g>
<g>
</g>
<g>
</g>
<g>
</g>
<g>
</g>
<g>
</g>
<g>
</g>
<g>
</g>
<g>
</g>
</svg>
